<?xml version="1.0" standalone="no"?>
<!DOCTYPE svg PUBLIC "-//W3C//DTD SVG 20010904//EN"
 "http://www.w3.org/TR/2001/REC-SVG-20010904/DTD/svg10.dtd">
<svg version="1.0" xmlns="http://www.w3.org/2000/svg"
 width="200.000000pt" height="200.000000pt" viewBox="0 0 200.000000 200.000000"
 preserveAspectRatio="xMidYMid meet">

<g transform="translate(0.000000,200.000000) scale(0.100000,-0.100000)"
fill="#000000" stroke="none">
<path d="M1445 1830 c-22 -11 -66 -41 -98 -67 -92 -75 -120 -94 -133 -89 -40
15 -216 27 -277 19 -67 -10 -69 -9 -99 19 -41 38 -80 36 -162 -6 -36 -19 -95
-44 -132 -56 -117 -39 -124 -62 -59 -194 19 -39 45 -100 58 -136 22 -65 23
-65 60 -64 28 1 37 -3 37 -15 0 -27 48 -121 71 -140 20 -16 20 -19 6 -67 -8
-27 -37 -84 -64 -126 -82 -125 -173 -359 -173 -445 0 -36 17 -19 24 24 13 73
47 173 58 173 6 0 25 -10 42 -23 17 -13 51 -35 76 -49 25 -14 106 -72 180
-127 89 -67 143 -101 160 -101 16 0 60 25 114 64 57 41 101 66 126 70 41 6 90
53 90 85 0 11 22 33 55 54 l54 37 25 -83 c13 -45 27 -97 31 -114 9 -47 28 -42
19 5 -25 139 -95 314 -176 439 -25 37 -47 83 -51 101 -6 29 -3 34 33 58 47 32
105 114 120 172 6 24 10 74 9 111 -1 38 3 77 10 89 7 13 16 44 21 70 5 26 19
74 30 107 18 48 21 73 17 128 -9 101 -26 114 -102 77z m70 -20 c19 -30 16
-117 -5 -175 -12 -33 -25 -78 -29 -100 -7 -42 -40 -105 -53 -105 -4 0 -8 -5
-8 -11 0 -5 4 -8 8 -5 5 3 8 -8 8 -24 0 -28 0 -28 -23 -12 -23 17 -33 39 -11
26 7 -4 8 -3 4 5 -6 9 -11 9 -21 1 -7 -6 -31 -12 -54 -14 -32 -3 -45 1 -53 14
-7 10 -18 16 -25 13 -7 -3 -13 -1 -13 3 0 5 -12 10 -26 10 -33 2 -40 10 -24
29 16 19 5 31 -35 40 -23 5 -26 4 -15 -4 13 -9 13 -11 -3 -11 -13 0 -16 -6
-13 -25 6 -35 15 -46 29 -38 7 4 6 -1 -2 -11 -8 -10 -23 -15 -33 -13 -20 6
-25 -9 -6 -15 8 -3 5 -13 -10 -33 -20 -25 -24 -27 -21 -9 0 4 -5 10 -12 15
-10 6 -10 11 2 25 12 16 12 17 -2 12 -13 -5 -15 4 -15 60 1 44 5 67 13 67 6 0
15 3 19 7 3 4 -3 6 -14 3 -17 -3 -20 1 -17 23 1 15 8 26 15 24 6 -1 9 2 6 7
-4 5 4 17 16 25 14 10 17 16 8 16 -11 0 -11 3 3 17 14 14 19 15 29 4 11 -12
10 -13 -5 -8 -11 4 -16 3 -12 -3 8 -13 35 -13 35 0 0 7 13 8 35 4 24 -4 42 -1
59 9 13 9 27 13 31 9 4 -4 12 -7 18 -7 14 0 17 -23 5 -47 -15 -32 -1 -19 21
18 12 20 31 38 42 41 16 5 18 8 7 15 -10 6 1 21 42 60 30 28 44 45 30 38 -37
-19 -109 -87 -102 -96 4 -4 -1 -4 -10 -1 -11 4 -18 1 -18 -7 0 -7 -7 -13 -15
-13 -25 0 -17 13 41 66 83 76 160 111 179 81z m-685 -125 c21 -22 27 -23 117
-18 l96 6 -5 -87 c-7 -105 5 -217 27 -250 9 -13 41 -40 73 -59 70 -44 80 -60
78 -121 -2 -62 -29 -86 -95 -86 -52 0 -91 21 -91 49 0 10 16 31 35 45 60 46
39 86 -45 86 -87 0 -105 -41 -40 -87 22 -15 40 -36 40 -45 0 -24 -50 -48 -100
-48 -58 0 -93 36 -88 91 4 46 -8 53 -14 8 -3 -21 3 -47 18 -75 26 -49 26 -49
-20 -30 -51 21 -107 76 -132 131 -31 65 -30 88 5 157 16 31 39 99 51 149 12
51 30 110 41 131 20 39 13 50 -15 23 -17 -17 -18 -20 -46 -139 -22 -98 -58
-176 -98 -219 -29 -31 -35 -28 -52 28 -6 22 -32 84 -57 137 -24 54 -43 105
-41 115 2 11 28 27 75 44 39 14 93 39 119 54 82 48 126 51 164 10z m370 -285
c0 -5 -7 -10 -15 -10 -8 0 -15 5 -15 10 0 6 7 10 15 10 8 0 15 -4 15 -10z
m185 -43 c12 -11 14 -17 5 -13 -8 4 -6 0 5 -9 11 -9 19 -23 17 -32 -2 -8 1
-12 6 -9 6 3 12 -1 16 -9 3 -8 0 -17 -6 -21 -7 -5 -8 -2 -3 6 6 9 4 11 -4 5
-9 -5 -10 -10 -2 -18 15 -15 14 -30 -1 -21 -7 4 -8 3 -4 -5 4 -6 2 -18 -4 -26
-14 -17 -35 -21 -25 -5 3 6 2 10 -4 10 -6 0 -8 8 -5 18 5 13 4 14 -4 3 -6 -8
-8 -19 -6 -25 3 -7 -17 -12 -55 -14 -56 -3 -58 -2 -56 21 2 13 -1 30 -6 38 -7
10 -8 6 -5 -13 5 -32 -10 -37 -30 -10 -17 22 -18 38 -1 23 10 -8 14 -7 14 2 0
7 -14 13 -31 14 -16 0 -35 8 -41 17 -7 9 -15 13 -18 9 -4 -3 -7 -1 -7 6 0 7
-5 9 -12 5 -7 -4 -8 -3 -4 5 4 6 12 9 17 6 5 -4 9 0 10 7 0 10 2 10 6 1 2 -7
9 -13 14 -13 6 0 7 6 3 13 -6 9 -5 9 7 0 23 -19 26 -19 50 2 13 12 19 14 14 5
-6 -11 -3 -10 12 3 11 9 23 14 28 10 4 -5 5 -2 1 5 -4 7 -12 10 -17 7 -5 -3
-6 1 -3 9 3 8 16 13 29 11 14 -1 22 2 19 6 -10 17 62 -4 81 -24z m-214 -4 c13
-16 12 -17 -3 -4 -10 7 -18 15 -18 17 0 8 8 3 21 -13z m54 -2 c-3 -6 -11 -11
-16 -11 -5 0 -4 6 3 14 14 16 24 13 13 -3z m-144 -128 c6 -6 -18 -9 -57 -9
-59 0 -64 1 -48 14 20 14 89 11 105 -5z m305 -61 c-7 -12 -72 -23 -92 -15 -7
3 -11 10 -7 17 8 14 -27 -12 -44 -33 -8 -9 -13 -10 -13 -4 0 7 4 14 10 18 5 3
7 12 4 19 -4 11 8 14 56 14 33 -1 64 2 67 6 9 9 27 -10 19 -22z m-92 -29 c7
-8 11 -9 37 -12 5 0 8 -5 4 -11 -3 -5 -13 -6 -22 -3 -12 5 -14 3 -8 -7 5 -9 4
-11 -4 -6 -6 4 -8 13 -4 19 6 11 -21 -9 -55 -40 -16 -16 -29 -16 -37 -2 -4 6
3 13 15 16 16 4 18 8 8 14 -11 7 -11 9 0 9 7 0 20 7 28 15 17 17 27 19 38 8z
m63 1 c-3 -3 -12 -4 -19 -1 -8 3 -5 6 6 6 11 1 17 -2 13 -5z m-237 -84 l35 0
-25 -20 c-59 -45 -157 -46 -212 0 l-23 19 35 1 c19 0 49 8 65 18 29 18 31 18
60 0 17 -10 46 -18 65 -18z m-320 -15 c7 -8 16 -13 20 -10 5 3 11 -4 15 -15 3
-11 11 -20 17 -20 6 0 6 6 -2 15 -11 13 -10 15 7 12 11 -1 31 -10 44 -18 46
-29 74 -36 136 -34 51 1 67 6 88 25 14 13 25 18 25 12 0 -7 5 -12 11 -12 5 0
7 5 3 12 -4 7 -3 8 4 4 7 -4 12 -1 12 6 0 9 3 9 10 -2 9 -13 10 -13 10 0 0 13
1 13 10 0 8 -13 10 -12 10 3 0 11 8 17 23 17 16 0 18 -3 9 -9 -8 -4 -13 -12
-13 -17 2 -20 -11 -44 -21 -38 -6 4 -8 -1 -4 -13 7 -23 -11 -42 -36 -38 -10 2
-21 -2 -25 -7 -3 -7 -1 -8 5 -4 7 4 12 2 12 -4 0 -6 5 -8 12 -4 7 4 8 3 4 -5
-4 -6 -12 -9 -17 -6 -5 4 -9 1 -9 -6 0 -7 -3 -9 -7 -6 -3 4 -13 1 -21 -6 -13
-9 -14 -9 -8 0 5 9 2 11 -8 7 -9 -3 -13 -10 -10 -15 3 -5 1 -9 -5 -9 -5 0 -13
5 -16 10 -3 6 -11 10 -16 10 -6 0 -7 -5 -4 -10 7 -11 -18 -24 -36 -18 -8 3 -6
9 5 21 10 9 13 17 7 17 -5 0 -16 -9 -24 -20 -14 -20 -33 -16 -19 5 4 6 0 4 -8
-6 -14 -14 -21 -14 -57 -4 -77 23 -139 88 -158 168 -8 30 5 36 25 12z m-75
-255 c26 -65 83 -148 113 -166 15 -8 51 -52 79 -97 29 -45 63 -98 75 -117 l23
-35 -30 19 c-17 11 -70 51 -119 89 -49 39 -136 101 -193 139 -57 37 -103 74
-103 81 0 17 44 110 88 185 l37 64 6 -59 c4 -32 14 -78 24 -103z m670 26 c30
-60 55 -113 55 -117 0 -5 -23 -24 -52 -43 l-52 -35 -18 30 c-11 18 -29 32 -49
36 -23 4 -28 10 -23 22 30 75 54 162 54 200 0 40 2 44 15 31 8 -8 39 -64 70
-124z m-519 21 c27 -14 67 -28 87 -32 33 -7 37 -10 37 -39 0 -51 -11 -60 -56
-46 -61 19 -155 72 -170 94 -7 12 -16 41 -20 66 l-7 44 39 -31 c21 -17 62 -42
90 -56z m361 -22 c-10 -29 -25 -46 -53 -62 -40 -23 -131 -49 -140 -40 -3 2 -2
23 2 45 6 37 9 41 43 47 20 3 63 20 96 38 33 18 61 27 63 22 1 -6 -4 -28 -11
-50z m-283 -119 c18 -6 18 -8 3 -23 -20 -21 -68 -21 -99 -1 -13 8 -33 34 -46
56 l-23 41 73 -33 c40 -18 82 -36 92 -40z m240 12 c-9 -17 -25 -40 -35 -51
-10 -12 -19 -32 -19 -46 0 -14 -27 -68 -60 -120 l-59 -94 -61 94 c-33 51 -60
96 -60 100 0 3 18 11 40 18 24 7 51 25 67 46 16 19 37 35 48 36 11 0 47 11 80
23 79 31 78 31 59 -6z m80 -74 c21 -20 20 -53 -1 -76 -20 -22 -41 -23 -65 -1
-24 21 -23 48 2 73 24 24 43 25 64 4z m-87 -115 c22 -15 21 -16 -61 -77 -46
-34 -86 -62 -90 -62 -3 0 20 41 52 90 43 67 60 87 67 77 6 -7 20 -20 32 -28z"/>
<path d="M1255 1650 c-3 -5 -3 -10 2 -10 4 0 1 -5 -7 -11 -12 -8 -12 -10 -1
-7 8 2 15 12 17 21 3 19 -2 22 -11 7z"/>
<path d="M1344 1632 c-25 -20 -48 -61 -40 -70 3 -3 6 0 6 7 0 7 7 11 14 8 10
-4 13 -1 9 9 -4 10 5 19 26 27 17 6 30 16 28 21 -6 17 -21 16 -43 -2z"/>
<path d="M1265 1610 c-3 -6 1 -7 9 -4 18 7 21 14 7 14 -6 0 -13 -4 -16 -10z"/>
<path d="M1095 1601 c-3 -5 -2 -12 3 -15 5 -3 9 1 9 9 0 17 -3 19 -12 6z"/>
<path d="M1362 1574 c-22 -15 -22 -17 -7 -34 10 -11 14 -24 9 -31 -4 -8 -3
-10 4 -5 16 10 15 -7 0 -23 -11 -11 -10 -13 0 -7 15 9 42 71 42 97 0 23 -18
24 -48 3z"/>
<path d="M1441 1548 c-6 -19 -23 -46 -36 -58 -26 -24 -34 -47 -12 -33 6 4 20
6 29 5 31 -5 60 74 39 107 -6 10 -12 4 -20 -21z"/>
<path d="M1288 1413 c7 -3 16 -2 19 1 4 3 -2 6 -13 5 -11 0 -14 -3 -6 -6z"/>
<path d="M867 1483 c-12 -11 -8 -18 23 -36 27 -16 31 -17 36 -3 10 25 -3 46
-29 46 -13 0 -27 -3 -30 -7z"/>
<path d="M795 1407 c-34 -18 -37 -22 -18 -25 12 -2 28 -14 37 -27 12 -19 26
-24 71 -27 51 -3 55 -1 55 19 0 12 -12 35 -26 52 -31 37 -62 39 -119 8z m75
-7 c0 -5 -4 -10 -10 -10 -5 0 -10 5 -10 10 0 6 5 10 10 10 6 0 10 -4 10 -10z
m25 -49 c-3 -6 -11 -11 -16 -11 -5 0 -4 6 3 14 14 16 24 13 13 -3z"/>
<path d="M1247 1316 c-17 -13 -17 -14 0 -20 10 -4 14 -4 10 0 -4 4 -2 13 4 21
14 17 9 16 -14 -1z"/>
<path d="M1364 1318 c-4 -7 -4 -10 1 -6 4 4 15 2 24 -5 14 -11 14 -10 2 6 -16
20 -18 21 -27 5z"/>
<path d="M1170 1296 c0 -2 7 -7 16 -10 8 -3 12 -2 9 4 -6 10 -25 14 -25 6z"/>
<path d="M1265 1280 c-3 -5 -1 -10 4 -10 6 0 11 5 11 10 0 6 -2 10 -4 10 -3 0
-8 -4 -11 -10z"/>
<path d="M1255 1110 c-3 -5 -1 -10 4 -10 6 0 11 5 11 10 0 6 -2 10 -4 10 -3 0
-8 -4 -11 -10z"/>
<path d="M870 987 c0 -2 6 -10 14 -16 11 -9 16 -9 22 1 4 7 4 10 -1 6 -4 -4
-14 -3 -22 3 -7 6 -13 9 -13 6z"/>
<path d="M1125 981 c-3 -5 -2 -12 3 -15 5 -3 9 1 9 9 0 17 -3 19 -12 6z"/>
<path d="M1151 964 c0 -11 3 -14 6 -6 3 7 2 16 -1 19 -3 4 -6 -2 -5 -13z"/>
<path d="M913 945 c0 -8 4 -15 9 -15 4 0 8 4 8 9 0 6 -4 12 -8 15 -5 3 -9 -1
-9 -9z"/>
</g>
</svg>
